<svg width="24" height="24" viewBox="0 0 24 24" fill="none" xmlns="http://www.w3.org/2000/svg">
<path d="M21.1409 17.5317C20.3965 16.7817 18.5937 15.6871 17.719 15.2461C16.58 14.6723 16.4862 14.6254 15.5909 15.2906C14.9937 15.7345 14.5967 16.1311 13.8978 15.982C13.1989 15.8329 11.6801 14.9925 10.3503 13.6668C9.02042 12.3412 8.13121 10.7784 7.98167 10.0818C7.83214 9.38527 8.23527 8.99293 8.67496 8.39434C9.29464 7.55058 9.24777 7.40996 8.71808 6.2709C8.30511 5.38496 7.17871 3.59902 6.42589 2.8584C5.62058 2.06293 5.62058 2.20355 5.10167 2.41918C4.67921 2.59689 4.27392 2.81295 3.89089 3.06465C3.14089 3.56293 2.72464 3.97683 2.43355 4.59887C2.14246 5.2209 2.01167 6.67918 3.51496 9.41012C5.01824 12.1411 6.07292 13.5375 8.25589 15.7143C10.4389 17.8912 12.1175 19.0617 14.5714 20.4379C17.607 22.1381 18.7714 21.8067 19.3953 21.5161C20.0192 21.2254 20.435 20.8129 20.9342 20.0629C21.1865 19.6805 21.4031 19.2757 21.5811 18.8536C21.7971 18.3365 21.9378 18.3365 21.1409 17.5317Z" fill="white" stroke="white" strokeWidth="1.5" stroke-miterlimit="10"/>
</svg>
