<svg width="20" height="20" viewBox="0 0 20 20" fill="none" xmlns="http://www.w3.org/2000/svg">
<path d="M4.97078 2.61328C4.40545 2.76469 3.88995 3.06227 3.47611 3.47611C3.06227 3.88995 2.76469 4.40545 2.61328 4.97078M15.0291 2.61328C15.5944 2.76469 16.1099 3.06227 16.5238 3.47611C16.9376 3.88995 17.2352 4.40545 17.3866 4.97078" stroke="white" stroke-width="2" stroke-linecap="round"/>
<path fill-rule="evenodd" clip-rule="evenodd" d="M9.99967 16.6668C11.7678 16.6668 13.4635 15.9645 14.7137 14.7142C15.964 13.464 16.6663 11.7683 16.6663 10.0002C16.6663 8.23205 15.964 6.53636 14.7137 5.28612C13.4635 4.03588 11.7678 3.3335 9.99967 3.3335C8.23156 3.3335 6.53587 4.03588 5.28563 5.28612C4.03539 6.53636 3.33301 8.23205 3.33301 10.0002C3.33301 11.7683 4.03539 13.464 5.28563 14.7142C6.53587 15.9645 8.23156 16.6668 9.99967 16.6668ZM10.833 6.66683C10.833 6.44582 10.7452 6.23385 10.5889 6.07757C10.4326 5.92129 10.2207 5.8335 9.99967 5.8335C9.77866 5.8335 9.5667 5.92129 9.41042 6.07757C9.25414 6.23385 9.16634 6.44582 9.16634 6.66683V9.79183C9.16634 10.3668 9.63301 10.8335 10.208 10.8335H12.4997C12.7207 10.8335 12.9326 10.7457 13.0889 10.5894C13.2452 10.4331 13.333 10.2212 13.333 10.0002C13.333 9.77915 13.2452 9.56719 13.0889 9.41091C12.9326 9.25463 12.7207 9.16683 12.4997 9.16683H10.833V6.66683Z" fill="white"/>
</svg>
