<svg width="20" height="20" viewBox="0 0 20 20" fill="none" xmlns="http://www.w3.org/2000/svg">
<path d="M4.97078 2.61328C4.40545 2.76469 3.88995 3.06227 3.47611 3.47611C3.06227 3.88995 2.76469 4.40545 2.61328 4.97078M15.0291 2.61328C15.5944 2.76469 16.1099 3.06227 16.5238 3.47611C16.9376 3.88995 17.2352 4.40545 17.3866 4.97078" stroke="white" stroke-width="2" strokeLinecap="round"/>
<path fillRule="evenodd" clipRule="evenodd" d="M9.99967 16.6663C11.7678 16.6663 13.4635 15.964 14.7137 14.7137C15.964 13.4635 16.6663 11.7678 16.6663 9.99967C16.6663 8.23156 15.964 6.53587 14.7137 5.28563C13.4635 4.03539 11.7678 3.33301 9.99967 3.33301C8.23156 3.33301 6.53587 4.03539 5.28563 5.28563C4.03539 6.53587 3.33301 8.23156 3.33301 9.99967C3.33301 11.7678 4.03539 13.4635 5.28563 14.7137C6.53587 15.964 8.23156 16.6663 9.99967 16.6663ZM10.833 6.66634C10.833 6.44533 10.7452 6.23337 10.5889 6.07709C10.4326 5.92081 10.2207 5.83301 9.99967 5.83301C9.77866 5.83301 9.5667 5.92081 9.41042 6.07709C9.25414 6.23337 9.16634 6.44533 9.16634 6.66634V9.79134C9.16634 10.3663 9.63301 10.833 10.208 10.833H12.4997C12.7207 10.833 12.9326 10.7452 13.0889 10.5889C13.2452 10.4326 13.333 10.2207 13.333 9.99967C13.333 9.77866 13.2452 9.5667 13.0889 9.41042C12.9326 9.25414 12.7207 9.16634 12.4997 9.16634H10.833V6.66634Z" fill="white"/>
</svg>
