<svg width="28" height="24" viewBox="0 0 28 24" fill="none" xmlns="http://www.w3.org/2000/svg">
<path d="M8.20607 5.21351C9.64804 3.79332 11.5913 2.99811 13.6152 3C15.6423 3 17.5881 3.79476 19.0244 5.21351C20.325 6.49657 21.0025 7.93285 21.1816 9.42452C21.3597 10.9033 21.0413 12.3876 20.4339 13.7795C19.2284 16.5487 16.8321 19.0668 14.5337 20.7053C14.2658 20.8969 13.9446 21 13.6152 21C13.2858 21 12.9647 20.8969 12.6968 20.7053C10.3983 19.0668 8.00207 16.5478 6.79563 13.7795C6.18917 12.3876 5.87164 10.9033 6.04887 9.4236C6.22794 7.93285 6.90547 6.49749 8.20607 5.21351ZM11.0768 10.1537C11.0768 9.48051 11.3442 8.83485 11.8203 8.35881C12.2963 7.88276 12.942 7.61532 13.6152 7.61532C14.2884 7.61532 14.9341 7.88276 15.4102 8.35881C15.8862 8.83485 16.1536 9.48051 16.1536 10.1537C16.1536 10.827 15.8862 11.4726 15.4102 11.9487C14.9341 12.4247 14.2884 12.6922 13.6152 12.6922C12.942 12.6922 12.2963 12.4247 11.8203 11.9487C11.3442 11.4726 11.0768 10.827 11.0768 10.1537Z" fill="white"/>
<circle cx="13.4375" cy="10.3125" r="2.4375" fill="#001E00"/>
</svg>
