<svg width="17" height="19" viewBox="0 0 17 19" fill="none" xmlns="http://www.w3.org/2000/svg">
<path d="M9.90916 8.075L11.3542 6.595L9.37916 6.295C9.29839 6.28292 9.22187 6.25103 9.15644 6.20217C9.091 6.15331 9.03868 6.08901 9.00416 6.015L8.14416 4.175L7.28416 6.01C7.21416 6.16 7.07416 6.265 6.90916 6.29L4.93416 6.59L6.37916 8.07C6.48916 8.185 6.53916 8.345 6.51416 8.5L6.17916 10.56L7.90416 9.605C8.05416 9.52 8.23416 9.52 8.38916 9.605L10.1142 10.56L9.77916 8.5C9.74916 8.35 9.79916 8.19 9.90916 8.075Z" fill="white"/>
<path d="M11.8942 13.995C12.4778 13.6567 12.9119 13.1101 13.1092 12.465C13.7642 12.26 14.3042 11.84 14.6392 11.25C14.9792 10.665 15.0742 9.99 14.9242 9.315C15.3892 8.81 15.6442 8.175 15.6442 7.5C15.6442 6.825 15.3892 6.19 14.9242 5.685C15.0742 5.015 14.9792 4.335 14.6392 3.75C14.2992 3.165 13.7642 2.74 13.1092 2.535C12.9042 1.88 12.4842 1.34 11.8942 1.005C11.3092 0.665 10.6342 0.57 9.95916 0.72C9.45415 0.255 8.81916 0 8.14416 0C7.46916 0 6.83416 0.255 6.32916 0.72C5.65916 0.57 4.97916 0.665 4.39416 1.005C3.80916 1.345 3.38416 1.88 3.17916 2.535C2.52416 2.74 1.98416 3.16 1.64916 3.75C1.30916 4.335 1.21416 5.01 1.36416 5.685C0.899155 6.19 0.644155 6.825 0.644155 7.5C0.644155 8.175 0.899155 8.81 1.36416 9.315C1.21416 9.985 1.30916 10.665 1.64916 11.25C1.98916 11.835 2.52416 12.26 3.17916 12.465C3.38416 13.12 3.80416 13.66 4.39416 13.995C4.97916 14.335 5.65916 14.43 6.32916 14.28C6.83416 14.745 7.46916 15 8.14416 15C8.81916 15 9.45415 14.745 9.95916 14.28C10.6292 14.43 11.3092 14.335 11.8942 13.995ZM8.14416 10.62L5.75916 11.94C5.58916 12.03 5.38416 12.02 5.22916 11.91C5.07416 11.8 4.99416 11.61 5.02416 11.42L5.48416 8.595L3.53416 6.6C3.47001 6.53386 3.42533 6.45133 3.40501 6.36147C3.38469 6.27161 3.38952 6.17788 3.41896 6.09058C3.4484 6.00328 3.50133 5.92578 3.57192 5.86658C3.64252 5.80739 3.72806 5.76878 3.81916 5.755L6.49416 5.345L7.69416 2.79C7.77416 2.61 7.94916 2.5 8.14416 2.5C8.33916 2.5 8.51416 2.61 8.59916 2.79L9.79916 5.345L12.4742 5.755C12.6592 5.785 12.8142 5.915 12.8742 6.09C12.9342 6.265 12.8892 6.465 12.7592 6.6L10.8092 8.595L11.2692 11.42C11.2992 11.61 11.2192 11.8 11.0642 11.91C10.9092 12.02 10.7042 12.03 10.5342 11.94L8.14416 10.62ZM5.71416 15.35C5.01913 15.3484 4.33899 15.1485 3.75358 14.7739C3.16817 14.3993 2.70177 13.8654 2.40916 13.235C2.23416 13.155 2.06916 13.06 1.90916 12.955C1.90916 12.955 0.0691553 16.33 0.0591553 16.345C-0.115845 16.66 0.119155 17.075 0.479155 17.085L2.46416 17.155C2.46416 17.155 3.59416 18.78 3.59916 18.785C3.79416 19.065 4.27416 19.065 4.44916 18.74L6.23916 15.46C6.17416 15.42 6.10916 15.38 6.04416 15.335C5.93415 15.345 5.82416 15.35 5.71416 15.35ZM16.2292 16.345L14.3792 12.955C14.2192 13.06 14.0542 13.155 13.8792 13.235C13.5865 13.8654 13.1201 14.3993 12.5347 14.7739C11.9493 15.1485 11.2692 15.3484 10.5742 15.35C10.4642 15.35 10.3542 15.345 10.2442 15.335C10.1792 15.38 10.1142 15.42 10.0492 15.46L11.8392 18.74C12.0092 19.05 12.4742 19.09 12.6892 18.785L13.8242 17.155L15.8092 17.085C16.1792 17.07 16.3942 16.665 16.2292 16.345Z" fill="white"/>
</svg>
