<svg width="24" height="24" viewBox="0 0 24 24" fill="none" xmlns="http://www.w3.org/2000/svg">
<path d="M16.6568 14.8982H15.7306L15.4023 14.5816C16.135 13.7304 16.6705 12.7278 16.9704 11.6454C17.2704 10.5631 17.3274 9.42789 17.1374 8.32096C16.5864 5.06167 13.8664 2.45893 10.5837 2.06031C9.4296 1.9143 8.2574 2.03425 7.15679 2.41096C6.05617 2.78768 5.05633 3.41118 4.23375 4.23375C3.41118 5.05633 2.78768 6.05617 2.41096 7.15679C2.03425 8.2574 1.9143 9.4296 2.06031 10.5837C2.45893 13.8664 5.06167 16.5864 8.32096 17.1374C9.42789 17.3274 10.5631 17.2704 11.6454 16.9704C12.7278 16.6705 13.7304 16.135 14.5816 15.4023L14.8982 15.7306V16.6568L19.8809 21.6395C20.3616 22.1202 21.1471 22.1202 21.6278 21.6395C22.1084 21.1588 22.1084 20.3733 21.6278 19.8926L16.6568 14.8982ZM9.62233 14.8982C6.70304 14.8982 4.3465 12.5416 4.3465 9.62233C4.3465 6.70304 6.70304 4.3465 9.62233 4.3465C12.5416 4.3465 14.8982 6.70304 14.8982 9.62233C14.8982 12.5416 12.5416 14.8982 9.62233 14.8982Z" fill="white"/>
</svg>
