<svg width="560" height="606" viewBox="0 0 560 606" fill="none" xmlns="http://www.w3.org/2000/svg">
<path opacity="0.5" d="M70.8963 374.737C53.2043 375.849 35.4334 375.712 17.76 374.326C13.2685 373.973 8.52819 373.446 4.92424 370.742C1.32028 368.038 -0.448457 362.386 2.44893 358.937C4.20376 356.848 7.0764 356.134 9.76507 355.658C31.1894 351.862 53.9093 355.847 72.7594 366.709C66.7806 371.722 57.3556 368.934 51.4974 363.781C45.6408 358.628 41.6936 351.554 35.6901 346.574C30.1767 342 22.5359 338.555 21.0408 331.552C19.2628 323.226 28.6259 315.823 37.1125 316.562C45.599 317.302 52.5735 323.475 58.0652 329.983C67.0465 340.627 73.9004 353.056 78.1089 366.329C73.0825 352.597 71.2225 337.72 72.7114 323.174C73.7721 312.821 78.6856 300.608 89.0336 299.435C96.8352 298.55 103.998 305.106 106.231 312.631C108.463 320.155 106.857 328.264 104.575 335.772C100.854 348.019 95.351 359.725 88.2946 370.407C83.2836 377.992 74.1199 385.859 66.1931 381.403C59.6237 377.71 60.1184 366.742 66.3415 362.493C72.5645 358.243 81.7422 360.465 86.6712 366.162C89.9303 369.93 91.6403 375.311 90.0571 380.034C88.4739 384.756 83.0533 388.174 78.3129 386.638C73.5741 385.102 71.4374 378.054 75.1063 374.686C75.5222 374.304 87.2973 399.562 88.494 402.332C92.0902 410.667 93.8822 419.833 96.1039 428.528C98.5869 438.242 93.4477 448.828 93.1895 458.665C92.8138 472.944 100.097 486.56 99.9537 500.844C97.1398 493.982 94.3259 487.121 91.512 480.259C89.2377 474.713 86.9031 469.067 83.0301 464.493C78.5232 459.17 72.2878 455.347 67.3959 450.431C61.7372 444.743 54.384 442.368 46.471 441.346C41.5915 440.718 36.5311 440.65 31.8588 442.192C27.1865 443.735 22.9317 447.085 21.2201 451.696C19.5086 456.307 20.8676 462.134 24.9818 464.832C28.5734 467.188 33.2441 466.828 37.5021 466.261C49.9791 464.598 63.6698 457.137 75.6908 462.226C82.6018 465.153 90.5983 474.639 90.7807 482.481C85.7512 480.665 84.25 474.46 81.215 470.059C79.052 466.925 75.9428 464.591 72.8892 462.315C69.4244 459.733 65.9117 457.123 61.9104 455.486C56.6366 453.329 50.8248 452.985 45.1367 452.666M329.256 403.703C330.786 410.412 336.539 415.188 340.313 420.944C348.741 433.795 346.855 450.471 346.438 465.83C346.02 481.189 348.856 499.051 362.166 506.743C365.966 508.939 370.507 510.211 373.278 513.613C379.402 521.135 372.678 532.183 365.501 538.711C332.583 568.656 287.404 580.462 243.866 589.716C220.443 594.695 196.607 599.25 172.708 597.728C139.582 595.617 114.057 579.639 92.0655 555.653C89.1279 552.45 86.2661 548.996 84.955 544.852C83.0842 538.939 84.6226 532.572 85.4807 526.43C86.4624 519.403 85.6229 512.36 86.4609 505.382C87.3298 498.147 89.3366 490.933 91.529 484.003C92.1026 482.189 92.7458 480.322 94.0522 478.938C95.3587 477.553 97.517 476.788 99.2193 477.64C105.128 480.597 106.8 496.582 108.575 502.222C111.614 511.884 115 521.469 119.518 530.551C126.859 545.306 137.546 558.935 152.09 566.699C160.627 571.258 170.151 573.633 179.66 575.453C220.299 583.234 263.837 581.236 301.027 563.108C324.454 551.689 344.811 534.053 359.446 512.497C354.102 504.486 341.173 506.031 333.967 512.42C326.76 518.811 323.214 528.243 318.036 536.361C309.282 550.086 295.276 560.363 279.563 564.638C263.85 568.914 246.58 567.158 232.031 559.845C221.652 554.628 212.596 546.705 201.546 543.123C192.12 540.068 181.991 540.417 172.101 539.778C162.212 539.14 151.811 537.219 144.392 530.653C139.803 526.593 136.768 521.106 133.823 515.733C124.617 498.942 115.412 482.15 106.206 465.36C105.142 463.421 104.048 461.35 104.167 459.144C104.332 456.058 106.783 453.634 109.164 451.662C116.449 445.631 124.663 440.725 133.428 437.17C137.059 435.697 141.174 434.456 144.815 435.904C147.292 436.889 149.189 439.001 151.66 440.002C154.131 441.002 157.81 440.052 157.988 437.394C158.225 433.869 152.637 432.964 151.307 429.69C149.781 425.927 162.274 416.291 164.601 412.558C169.541 404.63 172.302 395.399 173.384 386.165C175.573 367.479 170.849 349.247 169.845 330.724C168.825 311.888 166.979 293.095 164.333 274.419C163.067 265.475 161.615 256.559 160.165 247.644C157.252 247.406 155.802 251.088 155.531 253.996C154.066 269.783 159.704 285.227 163.5 300.622C169.85 326.374 171.125 353.365 167.232 379.599C164.933 380.219 163.209 377.552 162.343 375.336C146.867 335.753 137.524 294.094 128.238 252.622C125.687 241.228 123.128 229.786 122.239 218.145C121.342 206.406 122.561 193.544 130.46 184.81C135.888 178.809 143.708 175.626 151.349 172.956C170.17 166.381 189.677 161.735 208.057 154.012C225.157 146.827 229.178 135.029 234.818 118.171C235.123 117.263 235.418 116.28 235.143 115.362C234.44 113.015 231.154 113.146 228.707 113.279C217.572 113.877 208.661 104.43 202.295 95.2825C192.721 81.5257 184.737 65.9256 183.989 49.1866C183.544 39.2511 186.201 28.424 194.032 22.2865C201.995 16.044 213.258 16.149 223.118 18.4235C226.868 19.2888 230.65 20.4694 233.694 22.8258C236.629 25.0972 238.711 28.3652 239.874 31.8883C242.799 40.7514 239.746 51.0161 233.161 57.6326C226.575 64.2506 216.921 67.3533 207.592 66.9438C196.69 66.4664 185.832 61.1046 179.844 51.9896C173.856 42.8745 173.465 30.0572 179.876 21.2327C187.005 11.4192 200.266 8.29177 212.398 8.05381C219.755 7.91011 227.742 8.81867 233.119 13.839C241.617 21.775 239.48 36.8236 233.489 45.6528C230.542 49.9963 225.819 53.3138 220.587 53.7526C219.452 53.8484 218.264 53.8005 217.245 53.2921C215.634 52.4902 214.758 50.7101 214.297 48.9718C213.037 44.2157 214.105 39.0765 216.288 34.665C218.471 30.255 221.7 26.4585 224.97 22.7794C231.248 15.7195 238.042 8.73832 246.675 4.89391C255.36 1.02631 265.187 0.664742 274.68 1.1901C281.959 1.5934 289.325 2.50969 296.035 5.35901C301.582 7.71541 306.57 11.3775 310.478 15.9621C314.195 20.3226 316.875 25.3954 319.152 30.6784C320.435 33.6544 321.59 36.6984 322.733 39.7177C323.758 42.4295 324.8 45.2649 324.497 48.1467C323.997 52.8981 319.94 56.5556 315.602 58.5643C311.265 60.573 306.466 61.4074 302.081 63.3096C294.762 66.4849 292.717 73.0272 288.929 79.4212C284.796 86.3961 280.716 93.5086 278.445 101.29C276.173 109.072 275.846 117.688 279.133 125.098C281.279 129.935 284.836 134.011 288.664 137.667C302.929 151.286 321.79 160.009 341.411 162.058C350.909 163.05 361.166 162.717 369.076 168.065C378.344 174.331 381.423 186.331 383.802 197.258C386.338 208.901 389.507 220.425 390.048 232.252C390.644 245.233 390.608 258.182 390.314 271.171C390.002 285.019 389.585 298.863 389.063 312.705C388.28 333.536 389.639 353.985 390.896 374.794C390.982 376.235 391.002 377.867 389.985 378.892C389.339 379.544 388.403 379.8 387.514 380.032C384.688 380.767 381.86 381.503 379.034 382.239C377.202 382.716 375.317 383.196 373.437 382.972C371.557 382.75 369.655 381.657 369.035 379.87C368.256 377.621 369.819 375.087 371.947 374.021C374.074 372.955 376.579 373.018 378.946 373.261C383.519 373.728 388.4 374.993 391.254 378.595C393.083 380.902 393.825 383.861 394.498 386.726C402.814 422.2 404.919 458.651 413.86 493.98C415.587 500.807 417.481 507.59 419.537 514.324C421.289 520.06 422.546 524.483 427.83 528.074C430.459 529.861 433.501 530.944 436.57 531.772C443.529 533.649 449.988 532.806 456.998 533.717C462.995 534.498 468.668 536.809 474.49 538.446C481.944 540.541 489.707 541.538 497.448 541.392C498.841 541.366 500.69 541.666 500.86 543.047C500.907 543.429 500.795 543.812 500.65 544.168C499.902 546.002 498.183 547.408 496.234 547.776C505.958 550.262 515.68 552.748 525.409 555.236C527.976 555.892 533.076 558.87 530.309 562.112C531.649 562.993 534.129 563.898 534.692 565.502C535.213 566.982 534.321 568.674 533.004 569.527C531.687 570.382 530.054 570.572 528.485 570.627C526.864 570.684 524.01 569.781 522.549 570.275C521.223 570.723 520.938 572.443 519.423 573.078C518.308 573.545 517.07 573.6 515.862 573.586C505.2 573.466 495.237 568.52 484.783 566.418C485.505 568.758 488.274 569.649 490.634 570.304C495.112 571.548 499.484 573.174 503.687 575.158C504.351 575.471 505.072 575.859 505.316 576.553C506.041 578.622 502.824 579.705 501.321 579.782C499.194 579.892 497.128 578.968 495.072 578.56C484.94 576.558 475.279 573.075 465.249 571.003C456.07 569.107 446.906 567.113 437.66 565.564C429.027 564.116 420.98 563.493 413.3 558.776C411.414 557.617 409.62 556.305 407.937 554.868C403.969 551.484 400.634 547.434 397.323 543.407C393.791 539.115 394.076 534.83 393.266 529.564C392.137 522.232 389.592 515.202 387.06 508.228C375.319 475.9 362.605 443.779 352.678 410.866C348.584 397.293 345.262 383.311 345.383 369.137C345.494 356.147 348.495 343.232 347.659 330.268C347.064 321.04 344.536 311.718 346.487 302.679C348.183 294.818 353.12 287.996 355.176 280.222C358.036 269.408 355.267 257.085 360.911 247.426C363.669 242.705 368.372 238.74 368.827 233.292C365.979 232.493 363.643 235.57 362.406 238.255C353.491 257.629 352.401 279.573 346.86 300.166C340.998 321.949 330.139 342.231 325.352 364.274C322.168 378.932 321.652 394.391 315.378 408.017C327.076 411.188 330.983 426.723 327.19 438.227C323.398 449.732 314.574 458.759 308.215 469.072C298.782 484.369 294.807 502.483 285.75 518.006C284.301 520.489 282.625 522.995 280.107 524.383C275.92 526.688 270.74 525.284 266.206 523.774C236.592 513.911 207.822 501.525 180.308 486.793C175.402 484.167 170.402 481.354 166.949 476.991C159.423 467.477 160.833 452.705 152.323 444.058C151.413 443.133 150.732 443.626 149.676 444.38C148.62 445.134 148.235 446.571 148.398 447.858C148.56 449.145 149.174 450.325 149.778 451.474C152.314 456.293 160.742 465.878 157.716 471.753C156.433 474.245 152.986 474.583 150.236 474.043C145.932 473.194 141.91 470.972 138.901 467.781C136.439 465.169 134.617 461.913 131.718 459.793C129.388 458.09 126.542 457.26 123.73 456.608C122.007 456.21 120.056 455.902 118.589 456.886C116.182 458.503 116.941 462.498 119.167 464.354C121.393 466.211 124.425 466.663 127.194 467.522C131.256 468.781 134.996 471.057 137.982 474.084C138.422 474.531 138.909 475.024 139.534 475.065C140.16 475.107 140.795 474.344 140.397 473.86M301.659 100.689C301.478 101.771 301.276 102.902 300.606 103.77C299.935 104.639 298.638 105.13 297.708 104.549C297.344 104.322 297.083 103.966 296.846 103.609C293.801 99.0234 293.501 93.2073 293.3 87.7065C293.198 84.922 293.096 82.1392 292.993 79.3563C292.891 76.5518 293.145 73.1153 295.671 71.8915C298.61 70.4669 301.019 71.7525 302.777 73.9667C303.284 74.6049 307.368 79.8508 307.344 80.1644C307.805 73.9219 303.128 68.5678 301.375 62.5571C299.209 55.1309 302.02 46.5119 308.148 41.7883C310.316 40.1179 313.745 39.0579 315.548 41.1145C316.19 41.847 316.457 42.8251 316.706 43.7676C318.363 50.0473 320.213 55.7536 322.624 61.7118C324.133 65.4388 325.845 69.4609 324.806 73.3455C323.889 76.7712 320.913 79.6004 320.913 83.1466C320.913 84.9282 321.683 86.6047 322.337 88.2627C324.104 92.736 325.128 97.591 324.579 102.369C323.837 108.811 320.35 114.552 317.241 120.245C313.472 127.143 310.149 134.284 307.3 141.61C306.667 143.237 305.775 145.115 304.053 145.401C302.944 145.584 301.863 145.016 300.883 144.467C297.069 142.33 293.066 140.008 290.937 136.191C289.659 133.901 289.176 131.267 288.711 128.686C287.868 124.009 287.036 119.125 288.403 114.574C288.694 113.607 289.241 112.531 290.24 112.368C290.745 112.284 291.26 112.466 291.695 112.737C294.365 114.396 293.923 118.346 293.147 121.391C291.842 126.512 290.538 131.634 289.233 136.755C289.522 135.164 289.812 133.572 290.101 131.981M219.977 22.9308C217.417 23.9058 214.911 25.0261 212.516 26.355C207.009 29.4129 202.019 33.7131 199.15 39.3191C196.28 44.925 195.792 51.9447 198.819 57.4657C202.85 64.8177 212.349 67.9822 220.585 66.3922C228.821 64.8022 235.831 59.3044 241.253 52.9089C244.712 48.8296 247.733 44.1632 248.671 38.8988C249.61 33.6359 248.099 27.6915 243.869 24.4188C242.246 23.1626 240.312 22.3514 238.327 21.8291C230.54 19.7848 221.975 22.234 215.673 27.2419C209.371 32.2498 205.184 39.5632 202.859 47.2659C201.707 51.0794 200.977 55.1139 201.61 59.0479C202.91 67.1153 210.153 73.5217 218.199 74.9726C226.245 76.4235 234.701 73.412 240.908 68.0934C246.985 62.8877 251.229 55.0985 250.669 47.1207M209.238 194.409C215.838 211.389 222.439 228.369 229.039 245.351C231.046 250.515 233.039 256.413 230.622 261.399C228.79 265.18 224.868 267.414 221.173 269.417C212.983 273.856 204.792 278.296 196.602 282.733C198.239 286.161 202.165 288.021 205.957 288.256C209.75 288.491 213.482 287.386 217.122 286.29C234.582 281.038 252.043 275.785 269.504 270.533C271.402 269.961 273.383 269.343 274.791 267.949C277.271 265.495 277.202 261.538 276.928 258.061C275.195 236.005 272.041 214.061 267.495 192.408C266.53 187.816 265.491 182.309 268.743 178.412C277.123 181.014 279.477 213.868 280.742 221.907C283.349 238.485 284.609 255.316 283.646 272.09C280.302 330.347 250.57 386.092 255.788 444.211M419.474 597.398C424.948 566.862 436.308 535.796 449.228 507.588C458.227 487.943 469.227 468.741 485.228 454.212C501.228 439.682 522.919 430.267 544.374 432.925C551.576 433.817 560.296 438.593 558.839 445.698C558.442 447.632 557.295 449.324 556.062 450.868C532.936 479.791 480.276 468.752 458.304 498.561C471.497 469.424 505.016 456.429 535.34 446.211M377.001 600.863C372.523 600.584 368.036 600.44 363.55 600.401M484.108 317.576C475.707 315.369 482.947 303.987 487.904 311.135C491.724 316.644 486.828 324.504 480.378 320.559C474.456 316.938 473.592 309.273 471.922 303.238C470.095 296.632 467.37 290.285 463.861 284.398C458.95 276.163 444.333 254.976 432.572 259.775C418.549 265.498 427.82 286.323 434.878 293.888C445.855 305.655 461.88 314.339 476.025 321.581C462.151 329.151 446.869 340.089 441.127 355.49C438.372 361.224 438.372 372.04 444.556 370.495C463.109 365.86 473.932 345.772 478.866 327.624M478.866 327.624C476.378 336.64 479.212 344.67 478.866 327.624ZM478.866 327.624C478.57 345.772 484.755 364.314 501.762 373.585C509.492 376.676 521.861 376.676 523.407 367.405C528.045 345.772 504.854 333.411 489.51 321.446M489.51 321.446C498.748 326.943 499.011 319.118 489.51 321.446ZM489.51 321.446C499.011 319.118 508.212 315.572 516.818 310.925C523.494 307.32 531.866 302.864 534.507 295.212C540.812 276.937 514.121 285.334 506.753 289.714C499.226 294.189 492.075 300.54 488.128 308.476C496.725 291.105 505.217 268.202 503.302 248.463C501.762 242.248 498.67 234.522 492.485 237.612C484.755 240.703 481.662 249.974 480.116 259.245C478.57 274.697 473.932 291.694 479.503 307.6M479.503 307.6C469.829 305.82 476.089 295.985 479.503 307.6ZM479.503 307.6C464.655 305.601 449.194 304.055 433.733 305.601C429.095 307.146 422.911 305.601 419.818 311.781C416.726 316.417 416.726 324.143 424.457 327.233C443.01 333.414 461.563 324.143 479.36 321.451M479.36 321.451C468.514 324.187 474.869 371.895 479.36 321.451ZM479.36 321.451C473.932 368.953 472.386 416.854 456.925 463.209C439.918 508.02 422.911 549.739 413.634 596.095C416.726 602.276 424.457 597.64 430.641 599.185C432.187 599.185 435.279 600.731 433.733 602.276C416.726 608.456 399.719 602.276 382.711 601.648" stroke="white" stroke-miterlimit="10" strokeLinecap="round" strokeLinejoin="round"/>
</svg>
