<svg width="24" height="24" viewBox="0 0 24 24" fill="none" xmlns="http://www.w3.org/2000/svg">
<path d="M9.39626 19.2633C9.31581 19.2633 9.23675 19.2423 9.16693 19.2023C9.09711 19.1623 9.03896 19.1048 8.99823 19.0354C7.46468 16.4228 3.37623 10.8597 3.33515 10.8038C3.26948 10.7145 3.23812 10.6046 3.24683 10.4941C3.25553 10.3836 3.30371 10.2799 3.38255 10.202L4.63974 8.95963C4.71652 8.88376 4.81747 8.8372 4.92502 8.82805C5.03258 8.8189 5.13994 8.84774 5.22843 8.90955L9.30022 11.7526C12.0249 8.25878 14.5558 5.84494 16.2208 4.42058C18.0954 2.81729 19.2887 2.09549 19.3386 2.06577C19.4104 2.02273 19.4924 2 19.5761 2H21.61C21.7036 1.99999 21.7949 2.02843 21.872 2.08153C21.949 2.13463 22.0081 2.20989 22.0414 2.29734C22.0747 2.38478 22.0806 2.48028 22.0584 2.57117C22.0361 2.66206 21.9868 2.74405 21.9169 2.80626C16.1411 7.95075 9.86006 18.92 9.79729 19.0302C9.75722 19.1005 9.69934 19.1591 9.62948 19.2C9.55962 19.2409 9.48022 19.2627 9.39926 19.2632L9.39626 19.2633Z" fill="#166534"/>
<path d="M9.30769 21.1862C4.72683 21.1862 1 17.4594 1 12.8785C1 8.2976 4.72683 4.57082 9.30769 4.57082C10.2262 4.5698 11.1385 4.7214 12.0073 5.01943C12.123 5.05921 12.2183 5.14336 12.272 5.25335C12.3257 5.36335 12.3336 5.49018 12.2938 5.60595C12.254 5.72173 12.1699 5.81695 12.0599 5.87069C11.9499 5.92442 11.823 5.93226 11.7073 5.89248C10.9349 5.6276 10.1238 5.49291 9.30728 5.49389C5.23535 5.49389 1.92266 8.80663 1.92266 12.8785C1.92266 16.9504 5.23535 20.2631 9.30728 20.2631C13.3792 20.2631 16.6919 16.9504 16.6919 12.8785C16.692 12.3789 16.6418 11.8805 16.5421 11.3909C16.5299 11.3315 16.5296 11.2703 16.5411 11.2108C16.5527 11.1513 16.5758 11.0946 16.6092 11.044C16.6426 10.9934 16.6857 10.9499 16.7359 10.916C16.7861 10.882 16.8426 10.8583 16.902 10.8462C16.9614 10.8341 17.0226 10.8337 17.0821 10.8453C17.1416 10.8568 17.1983 10.8799 17.2489 10.9133C17.2994 10.9467 17.3429 10.9898 17.3769 11.04C17.4108 11.0903 17.4346 11.1467 17.4467 11.2061C17.5588 11.7565 17.6153 12.3168 17.6152 12.8785C17.6154 17.4594 13.8886 21.1862 9.30769 21.1862Z" fill="#166534"/>
</svg>
