<svg width="21" height="21" viewBox="0 0 21 21" fill="none" xmlns="http://www.w3.org/2000/svg">
<path d="M10.2938 20.5898C7.54453 20.5898 4.95938 19.5187 3.01406 17.5734C1.07109 15.6305 0 13.0453 0 10.2961C0 7.54687 1.07109 4.96172 3.01641 3.01641C4.96172 1.07109 7.54453 0 10.2938 0C13.0453 0 15.6281 1.07109 17.5734 3.01641C19.5164 4.95937 20.5898 7.54687 20.5898 10.2961C20.5898 13.0453 19.5187 15.6305 17.5734 17.5758C15.6305 19.5187 13.0453 20.5898 10.2938 20.5898ZM10.2938 1.44141C7.92891 1.44141 5.70469 2.3625 4.03125 4.03359C2.36016 5.70703 1.43906 7.92891 1.43906 10.2961C1.43906 12.6633 2.36016 14.8852 4.03125 16.5586C5.70234 18.232 7.92891 19.1508 10.2938 19.1508C12.6586 19.1508 14.8828 18.2297 16.5539 16.5586C18.2273 14.8852 19.1461 12.6633 19.1461 10.2961C19.1461 7.92891 18.2273 5.70703 16.5539 4.03359C14.8828 2.3625 12.6586 1.44141 10.2938 1.44141Z" fill="#EF4444"/>
<path d="M11.3133 10.2961L15.007 6.60234C15.2883 6.32109 15.2883 5.86641 15.007 5.58516C14.7258 5.30391 14.2711 5.30391 13.9898 5.58516L10.2961 9.27891L6.6 5.58281C6.31875 5.30156 5.86406 5.30156 5.58281 5.58281C5.30156 5.86406 5.30156 6.31875 5.58281 6.6L9.27656 10.2937L5.58281 13.9875C5.30156 14.2688 5.30156 14.7258 5.58281 15.0047C5.71875 15.1383 5.90156 15.2156 6.09141 15.2156C6.27422 15.2156 6.45937 15.1453 6.6 15.0047L10.2938 11.3109L13.9875 15.0047C14.2688 15.2859 14.7234 15.2859 15.0047 15.0047C15.2859 14.7234 15.2859 14.2688 15.0047 13.9875L11.3133 10.2961Z" fill="#EF4444"/>
</svg>
