<svg width="24" height="24" viewBox="0 0 24 24" fill="none" xmlns="http://www.w3.org/2000/svg">
<path d="M19.174 1.8252H4.82422C3.17422 1.8252 1.82422 3.1752 1.82422 4.8252V19.1764C1.82422 20.8264 3.17422 22.1764 4.82422 22.1764H19.1755C20.8255 22.1764 22.1755 20.8264 22.1755 19.1764V4.8252C22.174 3.1752 20.8255 1.8252 19.174 1.8252ZM18.9812 12.6874H16.5662V21.4249H12.9527V12.6874H11.1452V9.67544H12.9527V7.86794C12.9527 5.41094 13.9727 3.9492 16.8752 3.9492H19.288V6.96044H17.779C16.651 6.96044 16.576 7.3827 16.576 8.16795L16.5662 9.67544H19.3L18.9812 12.6874Z" fill="white"/>
</svg>
